<svg xmlns="http://www.w3.org/2000/svg" viewBox="0 0 48 48"><title>19-Education</title><g id="_19-Education" data-name="19-Education"><rect x="16" y="6" width="10" height="2"/><rect x="16" y="10" width="2" height="2"/><rect x="20" y="10" width="2" height="2"/><path style="fill:#15549A;" d="M43,10H41a3,3,0,0,1-3-3V1h2V7a1,1,0,0,0,1,1h2Z"/><path style="fill:#15549A;" d="M45,48H29V46H45a1,1,0,0,0,1-1V9.414L38.586,2H13a1,1,0,0,0-1,1V14H10V3a3,3,0,0,1,3-3H39a1,1,0,0,1,.707.293l8,8A1,1,0,0,1,48,9V45A3,3,0,0,1,45,48Z"/><rect x="19" y="31" width="2" height="7"/><path style="fill:#15549A;" d="M20,32a1,1,0,0,1-.388-.078l-19-8a1,1,0,0,1,0-1.844l19-8a1,1,0,0,1,.776,0l19,8a1,1,0,0,1,0,1.844l-19,8A1,1,0,0,1,20,32ZM3.577,23,20,29.915,36.423,23,20,16.085Z"/><path style="fill:#15549A;" d="M20,48a1,1,0,0,1-.419-.092l-13-6A1,1,0,0,1,6,41V25H8V40.36L20,45.9,32,40.36V25h2V41a1,1,0,0,1-.581.908l-13,6A1,1,0,0,1,20,48Z"/><path style="fill:#15549A;" d="M38,37H36a1,1,0,0,1-1-1V30a1,1,0,0,1,1-1h2V23h2V35a1,1,0,0,1-.293.707l-1,1A1,1,0,0,1,38,37Zm-1-2h.586L38,34.586V31H37Z"/><rect x="18" y="22" width="4" height="2"/></g></svg>