<?xml version="1.0" encoding="UTF-8" standalone="no"?>
<svg
   xmlns:dc="http://purl.org/dc/elements/1.1/"
   xmlns:cc="http://creativecommons.org/ns#"
   xmlns:rdf="http://www.w3.org/1999/02/22-rdf-syntax-ns#"
   xmlns:svg="http://www.w3.org/2000/svg"
   xmlns="http://www.w3.org/2000/svg"
   width="100%"
   height="100%"
   viewBox="0 0 64 64"
   version="1.1"
   xml:space="preserve"
   style="fill-rule:evenodd;clip-rule:evenodd;stroke-linecap:round;stroke-linejoin:round;stroke-miterlimit:2;"
   id="svg23">
  <metadata
   id="metadata29">
    <rdf:RDF>
      <cc:Work
   rdf:about="">
        <dc:format>image/svg+xml</dc:format>

        <dc:type
   rdf:resource="http://purl.org/dc/dcmitype/StillImage" />

      </cc:Work>

    </rdf:RDF>

  </metadata>

  <defs
   id="defs27" />

  
  <path
   d="M56,22l-43.729,0c-0.538,0 -1.046,0.252 -1.371,0.682c-0.325,0.429 -0.431,0.986 -0.285,1.505c0.69,2.454 1.827,6.494 2.693,9.573c0.705,2.508 2.992,4.24 5.596,4.24c5.017,0 13.505,0 21.096,0c8.837,0 16,-7.163 16,-16c0,0 0,0 0,0Z"
   style="fill:#15549A;stroke:#222a33;stroke-width:2px;"
   id="path3" />

  <path
   d="M16.731,32.564c0.322,1.145 1.366,1.936 2.555,1.936c0.858,0 1.954,0 3.214,0"
   style="fill:none;stroke:#222a33;stroke-width:2px;"
   id="path5" />

  <path
   d="M43,13.125c0,-0.829 -0.329,-1.624 -0.915,-2.21c-0.586,-0.586 -1.381,-0.915 -2.21,-0.915c-4.803,0 -13.947,0 -18.75,0c-0.829,0 -1.624,0.329 -2.21,0.915c-0.586,0.586 -0.915,1.381 -0.915,2.21c0,3.555 0,8.875 0,8.875l25,0l0,-8.875Z"
   style="fill:none;stroke:#222a33;stroke-width:2px;"
   id="path7" />

  <path
   d="M26.583,16l1,0"
   style="fill:#15549A;stroke:#222a33;stroke-width:2px;"
   id="path9" />

  <path
   d="M21.75,16l1,0"
   style="fill:none;stroke:#222a33;stroke-width:2px;"
   id="path11" />

  <path
   d="M31.417,16l1,0"
   style="fill:none;stroke:#222a33;stroke-width:2px;"
   id="path13" />

  <path
   d="M36.25,16l1,0"
   style="fill:none;stroke:#222a33;stroke-width:2px;"
   id="path15" />

  <path
   d="M8,47.018c0,0 0.575,0.575 1.222,1.221c0.471,0.471 1.11,0.735 1.776,0.734c0.666,-0.001 1.304,-0.268 1.773,-0.74c0.639,-0.644 1.206,-1.215 1.206,-1.215l-0.023,0c0,0 0.6,0.591 1.268,1.248c0.983,0.969 2.564,0.96 3.536,-0.02c0.644,-0.649 1.219,-1.228 1.219,-1.228c0,0 0.608,0.599 1.281,1.262c0.978,0.963 2.549,0.96 3.523,-0.007c0.665,-0.66 1.265,-1.255 1.265,-1.255c0,0 0.575,0.575 1.222,1.221c0.471,0.471 1.11,0.735 1.776,0.734c0.666,-0.001 1.304,-0.268 1.773,-0.74c0.639,-0.644 1.206,-1.215 1.206,-1.215c0,0 0.608,0.599 1.281,1.262c0.978,0.963 2.549,0.96 3.523,-0.007c0.665,-0.66 1.265,-1.255 1.265,-1.255c0,0 0.591,0.591 1.249,1.248c0.97,0.971 2.541,0.98 3.522,0.02c0.681,-0.665 1.298,-1.268 1.298,-1.268l-0.046,0c0,0 0.583,0.583 1.235,1.235c0.976,0.976 2.557,0.979 3.536,0.007c0.66,-0.655 1.252,-1.242 1.252,-1.242c0,0 0.575,0.575 1.222,1.221c0.471,0.471 1.11,0.735 1.776,0.734c0.666,-0.001 1.304,-0.268 1.773,-0.74c0.639,-0.644 1.206,-1.215 1.206,-1.215"
   style="fill:none;stroke:#222a33;stroke-width:2px;"
   id="path17" />

  <path
   d="M7.955,47.01c0,0 0.575,0.575 1.222,1.222c0.471,0.471 1.11,0.735 1.776,0.734c0.666,-0.002 1.304,-0.268 1.773,-0.741c0.639,-0.644 1.206,-1.215 1.206,-1.215l-0.023,0c0,0 0.6,0.591 1.268,1.249c0.983,0.968 2.564,0.959 3.536,-0.02c0.644,-0.65 1.219,-1.229 1.219,-1.229c0,0 0.608,0.599 1.281,1.262c0.978,0.963 2.549,0.96 3.523,-0.006c0.665,-0.661 1.265,-1.256 1.265,-1.256c0,0 0.575,0.575 1.222,1.222c0.471,0.471 1.11,0.735 1.776,0.734c0.666,-0.002 1.304,-0.268 1.773,-0.741c0.639,-0.644 1.206,-1.215 1.206,-1.215c0,0 0.608,0.599 1.281,1.262c0.978,0.963 2.549,0.96 3.523,-0.006c0.665,-0.661 1.265,-1.256 1.265,-1.256c0,0 0.591,0.591 1.249,1.249c0.97,0.97 2.541,0.979 3.522,0.02c0.681,-0.666 1.298,-1.269 1.298,-1.269l-0.046,0c0,0 0.583,0.583 1.235,1.235c0.976,0.976 2.557,0.979 3.536,0.007c0.66,-0.655 1.252,-1.242 1.252,-1.242c0,0 0.575,0.575 1.222,1.222c0.471,0.471 1.11,0.735 1.776,0.734c0.666,-0.002 1.304,-0.268 1.773,-0.741c0.639,-0.644 1.206,-1.215 1.206,-1.215"
   style="fill:none;stroke:#222a33;stroke-width:2px;"
   id="path19" />

  <path
   d="M8,40.471c0,0 0.575,0.575 1.222,1.222c0.471,0.471 1.11,0.735 1.776,0.733c0.666,-0.001 1.304,-0.267 1.773,-0.74c0.639,-0.644 1.206,-1.215 1.206,-1.215l-0.023,0c0,0 0.6,0.591 1.268,1.249c0.983,0.968 2.564,0.959 3.536,-0.021c0.644,-0.649 1.219,-1.228 1.219,-1.228c0,0 0.608,0.599 1.281,1.262c0.978,0.963 2.549,0.96 3.523,-0.007c0.665,-0.66 1.265,-1.255 1.265,-1.255c0,0 0.575,0.575 1.222,1.222c0.471,0.471 1.11,0.735 1.776,0.733c0.666,-0.001 1.304,-0.267 1.773,-0.74c0.639,-0.644 1.206,-1.215 1.206,-1.215c0,0 0.608,0.599 1.281,1.262c0.978,0.963 2.549,0.96 3.523,-0.007c0.665,-0.66 1.265,-1.255 1.265,-1.255c0,0 0.591,0.591 1.249,1.248c0.97,0.971 2.541,0.98 3.522,0.02c0.681,-0.665 1.298,-1.268 1.298,-1.268l-0.046,0c0,0 0.583,0.583 1.235,1.235c0.976,0.976 2.557,0.979 3.536,0.007c0.66,-0.655 1.252,-1.242 1.252,-1.242c0,0 0.575,0.575 1.222,1.222c0.471,0.471 1.11,0.735 1.776,0.733c0.666,-0.001 1.304,-0.267 1.773,-0.74c0.639,-0.644 1.206,-1.215 1.206,-1.215"
   style="fill:#15549A;stroke:#222a33;stroke-width:2px;"
   id="path21" />

</svg>
