<?xml version="1.0" encoding="UTF-8" standalone="no"?>
<svg
   xmlns:dc="http://purl.org/dc/elements/1.1/"
   xmlns:cc="http://creativecommons.org/ns#"
   xmlns:rdf="http://www.w3.org/1999/02/22-rdf-syntax-ns#"
   xmlns:svg="http://www.w3.org/2000/svg"
   xmlns="http://www.w3.org/2000/svg"
   width="100%"
   height="100%"
   viewBox="0 0 64 64"
   version="1.1"
   xml:space="preserve"
   style="fill-rule:evenodd;clip-rule:evenodd;stroke-linecap:round;stroke-linejoin:round;stroke-miterlimit:2;"
   id="svg21">
  <metadata
   id="metadata27">
    <rdf:RDF>
      <cc:Work
   rdf:about="">
        <dc:format>image/svg+xml</dc:format>

        <dc:type
   rdf:resource="http://purl.org/dc/dcmitype/StillImage" />

      </cc:Work>

    </rdf:RDF>

  </metadata>

  <defs
   id="defs25" />

  
  <path
   d="M17,11l0,20"
   style="fill:#15549A;stroke:#222a33;stroke-width:1.5px;"
   id="path3" />

  <path
   d="M17,43l0,10"
   style="fill:#15549A;stroke:#222a33;stroke-width:1.5px;"
   id="path5" />

  <path
   d="M47,53l0,-13"
   style="fill:#15549A;stroke:#222a33;stroke-width:1.5px;"
   id="path7" />

  <path
   d="M47,31l0,-17.5"
   style="fill:#15549A;stroke:#222a33;stroke-width:1.5px;"
   id="path9" />

  <path
   d="M48,9.5c0,-0.828 -0.672,-1.5 -1.5,-1.5c-5.374,0 -23.626,0 -29,0c-0.828,0 -1.5,0.672 -1.5,1.5c0,0.828 0.672,1.5 1.5,1.5c5.374,0 23.626,0 29,0c0.828,0 1.5,-0.672 1.5,-1.5Z"
   style="fill:#15549A;stroke:#222a33;stroke-width:1.5px;"
   id="path11" />

  <path
   d="M17.5,53c-0.828,0 -1.5,0.672 -1.5,1.5c0,0.828 0.672,1.5 1.5,1.5c5.374,0 23.626,0 29,0c0.828,0 1.5,-0.672 1.5,-1.5c0,-0.828 -0.672,-1.5 -1.5,-1.5l-9,0"
   style="fill:#15549A;stroke:#222a33;stroke-width:1.5px;"
   id="path13" />

  <path
   d="M45,40l1.071,0c1.066,0 1.929,-0.863 1.929,-1.929c0,-1.518 0,-3.624 0,-5.142c0,-1.066 -0.863,-1.929 -1.929,-1.929c-5.702,0 -22.44,0 -28.142,0c-1.066,0 -1.929,0.863 -1.929,1.929c0,1.518 0,3.624 0,5.142c0,0.512 0.203,1.002 0.565,1.364c0.362,0.362 0.852,0.565 1.364,0.565c5.013,0 18.071,0 18.071,0"
   style="fill:#15549A;stroke:#222a33;stroke-width:1.5px;"
   id="path15" />

  <path
   d="M24,50l-2.268,0c-0.957,0 -1.732,-0.775 -1.732,-1.732c0,-0.665 0,-1.268 0,-1.268"
   style="fill:#15549A;stroke:#222a33;stroke-width:1.5px;"
   id="path17" />

  <path
   d="M32,17.25c0,0 3.5,4.068 3.5,6c0,1.932 -1.568,3.5 -3.5,3.5c-1.932,0 -3.5,-1.568 -3.5,-3.5c0,-1.932 3.5,-6 3.5,-6Z"
   style="fill:#15549A;stroke:#222a33;stroke-width:1.5px;"
   id="path19" />

</svg>
